<?xml version="1.0" encoding="utf-8"?>
<!-- Generator: Adobe Illustrator 26.0.2, SVG Export Plug-In . SVG Version: 6.00 Build 0)  -->
<svg version="1.1" id="Layer_1" xmlns="http://www.w3.org/2000/svg" xmlns:xlink="http://www.w3.org/1999/xlink" x="0px" y="0px"
	 viewBox="0 0 24 24" style="enable-background:new 0 0 24 24;" xml:space="preserve">
<style type="text/css">
	.st0{fill-rule:evenodd;clip-rule:evenodd;fill:#F9F9F9;}
</style>
<path class="st0" d="M8.6,22.6l-7.9-7.9L0,15.4L8.6,24l0,0v0L21,11.6l-0.7-0.7L8.6,22.6z M8.6,20.9L21,8.5V0l-8.4,0L0.1,12.4
	L8.6,20.9z M13,1h7v7.1L8.6,19.5l-7.1-7.1C1.5,12.4,9.1,4.9,13,1z M14.6,3.6c-0.8,0.8-0.8,2,0,2.8c0.8,0.8,2,0.8,2.8,0
	c0.8-0.8,0.8-2,0-2.8C16.6,2.8,15.4,2.8,14.6,3.6z M15.3,4.3c-0.4,0.4-0.4,1,0,1.4c0.4,0.4,1,0.4,1.4,0c0.4-0.4,0.4-1,0-1.4
	C16.3,3.9,15.7,3.9,15.3,4.3z"/>
</svg>
