<?xml version="1.0" encoding="utf-8"?>
<!-- Generator: Adobe Illustrator 26.0.2, SVG Export Plug-In . SVG Version: 6.00 Build 0)  -->
<svg version="1.1" id="Layer_1" xmlns="http://www.w3.org/2000/svg" xmlns:xlink="http://www.w3.org/1999/xlink" x="0px" y="0px"
	 viewBox="0 0 24 24" style="enable-background:new 0 0 24 24;" xml:space="preserve">
<style type="text/css">
	.st0{fill:#C60C2B;}
</style>
<path class="st0" d="M17.5,3C19.9,3,22,4.6,22,7.7c0,5-6.5,8.3-10,11.9C8.5,16,2,12.7,2,7.7C2,4.7,4,3,6.5,3c3.2,0,4.8,3.6,5.5,5.3
	C12.7,6.6,14.3,3,17.5,3z M17.5,1c-2.2,0-4.3,1.1-5.5,3.4C10.8,2.1,8.7,1,6.5,1C3.1,1,0,3.4,0,7.7C0,15,9.9,18.6,12,23
	c2.1-4.4,12-8,12-15.3C24,3.1,20.6,1,17.5,1z"/>
</svg>
